<?xml version="1.0" encoding="utf-8"?>
<!-- Generator: Adobe Illustrator 26.0.0, SVG Export Plug-In . SVG Version: 6.00 Build 0)  -->
<svg version="1.1" id="Слой_1" xmlns="http://www.w3.org/2000/svg" xmlns:xlink="http://www.w3.org/1999/xlink" x="0px" y="0px"
	 viewBox="0 0 241.6 28.3" style="enable-background:new 0 0 241.6 28.3;" xml:space="preserve">
<style type="text/css">
	.st0{fill:#EB2F51;}
	.st1{fill:#707070;}
	.st2{opacity:0.35;fill:#676767;enable-background:new    ;}
</style>
<g id="a">
</g>
<g id="b">
	<g id="c">
		<path class="st0" d="M13.8,12.8c-1.2-1.9-0.8-4-0.8-6c0.1-3.3-1.2-4.6-4.4-4.3c-0.1,0-0.3,0-0.4,0C7,2.5,6.5,1.7,7,0.5
			c0.1-0.2,0.3-0.4,0.5-0.4c2.1-0.1,4.2-0.3,6,1.1c1.1,0.9,1.8,2,1.9,3.3c0.1,1.2,0.1,2.4,0.1,3.6c0,0.7,0,1.5,0.1,2.2
			c0.1,1.3,1.2,2.3,2.5,2.5c0.6,0.1,1.2,0,1.8,0c-0.2-0.8-0.5-1.4-0.6-2.1c-0.1-0.5-0.2-1.1,0.6-1.3c1.1-0.2,1.7,0,1.9,0.8
			c0.3,1.5,1.2,2.4,2.7,2.6c0.9,0.1,0.9,0.8,0.9,1.5c0,0.6-0.3,1-0.9,1.1c-1.4,0.2-2.2,1-2.6,2.4c-0.2,0.9-1.5,1.5-2.2,0.8
			c-0.2-0.2-0.3-0.8-0.3-1.2c0-0.4,0.2-0.7,0.3-1.1c0.1-0.3,0.3-0.6,0.4-1c-2.2-0.7-4.2,0.6-4.4,2.8c-0.1,1.7,0,3.4-0.2,5.1
			c-0.2,2.7-2.4,4.8-5.1,4.9c-0.8,0-1.6,0-2.4,0c-0.8,0-1-0.3-1-1c0-1.1,0.2-1.5,1-1.5c0.6,0,1.2,0,1.9,0c2,0,3.2-1.1,3.3-3.2
			c0-1.5,0-3.1,0.1-4.6c0.1-0.8,0.4-1.6,0.6-2.6c-0.3,0-0.6,0-0.9,0c-3.8,0-7.6,0-11.3,0c-1.2,0-1.8-1.1-1.2-2.1
			c0.2-0.2,0.6-0.4,1-0.4c4,0,7.9,0,11.9,0C13.3,12.9,13.5,12.9,13.8,12.8L13.8,12.8z"/>
		<g>
			<path class="st1" d="M239,13.6c0.2,0.2,0.4,0.4,0.6,0.6c1.9,1.7,2.3,3.9,1.6,6.3c-0.7,2.4-2.4,3.9-4.9,4.4
				c-0.6,0.1-1.2,0.1-1.8,0.1c-3.1,0-6.1,0-9.2,0c-1,0-1.2-0.2-1.2-1.2c0-6.5,0-12.9,0-19.4c0-0.9,0.2-1.2,1.1-1.2
				c3.1,0,6.2,0,9.4,0c4.1,0,6.9,3.1,6.4,7C240.9,11.7,240.1,12.7,239,13.6L239,13.6z M228.2,21.2c2.3,0,4.4,0.1,6.6,0
				c1.8-0.1,2.7-1.3,2.6-3c-0.1-1.3-1.1-2.3-2.6-2.4c-2-0.1-4-0.1-6.1,0c-0.2,0-0.4,0.2-0.4,0.4C228.2,17.8,228.2,19.5,228.2,21.2
				L228.2,21.2z M228.3,7.1V12c2.2,0,4.4,0.1,6.5,0c1.5-0.1,2.2-1.1,2.2-2.4s-0.8-2.3-2.2-2.4C232.6,7,230.5,7.1,228.3,7.1
				L228.3,7.1z"/>
			<path class="st1" d="M158.5,11.7c0,1.1,0,2.2,0,3.3c0,3,0,5.9,0,8.9c0,0.9-0.2,1.1-1.1,1.1c-0.6,0-1.2,0-1.9,0
				c-0.9,0-1.1-0.2-1.1-1.2c0-3.8,0-7.6,0-11.5c0-2.6,0-5.3,0-7.9c0-0.9,0.2-1.2,1.1-1.2c2.8,0,2.3-0.5,4,2.1
				c2.4,3.6,4.8,7.2,7.3,10.8c0.1,0.2,0.3,0.4,0.6,0.7c0-0.5,0.1-0.8,0.1-1.1c0-3.6,0-7.2,0-10.8c0-1.6,0-1.6,1.7-1.6
				c0.5,0,0.9,0,1.4,0c0.7,0,1,0.3,1,1c0,2.1,0,4.1,0,6.1c0,4.4,0,8.8,0,13.2c0,1.2-0.1,1.2-1.3,1.3c-1.8,0.2-2.8-0.5-3.8-2
				c-2.3-3.7-4.9-7.2-7.3-10.9c-0.1-0.2-0.3-0.4-0.4-0.6L158.5,11.7L158.5,11.7z"/>
			<path class="st1" d="M92.1,14.6C92,15.8,92,17.4,91.6,19c-0.7,3.3-3.3,5.5-6.6,6c-1.8,0.2-3.6,0.3-5.4-0.2
				c-3.4-0.9-5.3-3.2-5.8-6.6c-0.4-2.8-0.4-5.7,0.1-8.5c0.7-3.6,3.4-6,7-6.4C82.8,3,84.6,3,86.4,3.6c3.1,1,4.9,3.3,5.4,6.5
				C92,11.5,92,12.8,92.1,14.6L92.1,14.6z M87.9,14.2L87.9,14.2c-0.1-0.9-0.1-1.7-0.1-2.6c-0.1-2.5-1.5-4.2-3.9-4.6
				c-3.1-0.5-5.8,1-6,4.2c-0.1,1.9-0.1,3.8-0.1,5.6c0.1,1.7,0.7,3.1,2.3,3.9c1.1,0.6,2.3,0.7,3.5,0.6c2.2-0.2,3.7-1.6,4.1-3.8
				C87.9,16.4,87.9,15.3,87.9,14.2L87.9,14.2z"/>
			<path class="st1" d="M150.2,14.8c-0.1,1.2-0.2,2.9-0.6,4.6c-0.8,3.4-3.2,5.1-6.5,5.7c-1.8,0.3-3.6,0.3-5.4-0.2
				c-3.4-0.9-5.3-3.2-5.8-6.6c-0.4-2.8-0.4-5.7,0.1-8.5c0.7-3.6,3.4-6,7-6.4c1.8-0.2,3.5-0.2,5.2,0.3c3.3,1,5.2,3.3,5.7,6.6
				C150.1,11.5,150.1,12.9,150.2,14.8L150.2,14.8z M146,14.1L146,14.1c-0.1-0.8-0.1-1.7-0.1-2.5c-0.1-2.5-1.6-4.3-4.1-4.7
				c-3.2-0.4-5.7,1.1-5.9,4.3c-0.1,2.1-0.1,4.3,0.1,6.4c0.2,1.7,1.3,3,3,3.4c0.8,0.2,1.7,0.3,2.5,0.3c2.2-0.1,3.8-1.5,4.2-3.8
				C146,16.4,146,15.3,146,14.1L146,14.1z"/>
			<path class="st1" d="M40.2,3.3c2.7,0,2.3-0.4,3.4,2.3c2.3,5.9,4.6,11.9,6.9,17.8c0.5,1.2,0.2,1.6-1.1,1.6c-2.8,0-2.4,0.4-3.5-2.4
				c-0.5-1.2-1.3-1.8-2.6-1.8c-2.4,0-4.8,0-7.3,0c-0.5,0-0.8,0.1-1,0.7c-0.3,0.9-0.7,1.8-1,2.7c-0.2,0.6-0.6,0.9-1.2,0.8
				c-0.6,0-1.2,0-1.9,0c-1,0-1.3-0.4-1-1.4c0.7-1.9,1.5-3.9,2.2-5.8c1.7-4.4,3.4-8.7,5.1-13.1c0.5-1.4,0.6-1.4,2-1.4
				C39.6,3.3,39.9,3.3,40.2,3.3z M43.7,17c-1.1-2.9-2.3-5.8-3.4-8.7h-0.2C39,11.2,37.9,14,36.8,17H43.7z"/>
			<path class="st1" d="M210.6,3.3c2.7,0,2.3-0.4,3.3,2.3c2.3,5.9,4.6,11.9,6.9,17.8c0.5,1.3,0.3,1.6-1.1,1.6
				c-2.8,0-2.4,0.4-3.4-2.3c-0.5-1.2-1.4-1.9-2.7-1.9c-2.4,0-4.9,0-7.3,0c-0.5,0-0.8,0.1-0.9,0.6c-0.3,0.9-0.7,1.8-1.1,2.7
				c-0.2,0.6-0.6,0.9-1.3,0.9c-0.6,0-1.2,0-1.9,0c-1,0-1.3-0.4-0.9-1.4c0.8-2.1,1.6-4.2,2.4-6.2c1.6-4.2,3.3-8.4,4.9-12.6
				c0.6-1.4,0.6-1.4,2.1-1.4C210,3.3,210.3,3.3,210.6,3.3L210.6,3.3z M214.1,17l-3.4-8.7h-0.2c-1.1,2.9-2.2,5.7-3.4,8.7H214.1
				L214.1,17z"/>
			<path class="st1" d="M57.8,17.2c0,0.8,0,1.6,0,2.3c0,1.5,0,3,0,4.4c0,0.7-0.3,1-1,1c-0.7,0-1.4,0-2.1,0c-0.7,0-1-0.3-1-1
				c0-0.1,0-0.2,0-0.2c0-6.4,0-12.8,0-19.1c0-1.1,0.2-1.3,1.3-1.3c2.8,0,5.5-0.1,8.2,0c1.2,0,2.4,0.2,3.5,0.6c2.5,0.8,3.8,2.7,4,5.3
				c0.1,1.1,0,2.2-0.2,3.2c-0.6,2.6-2.8,4.3-5.6,4.6c-1.9,0.2-3.8,0.1-5.7,0.2C58.8,17.3,58.4,17.3,57.8,17.2L57.8,17.2z M57.9,13.4
				c2,0,3.8,0,5.7,0c0.4,0,0.8-0.1,1.2-0.3c1.5-0.5,2-1.4,1.9-3.3c-0.1-1.3-0.8-2.4-2.2-2.5c-2.2-0.2-4.4-0.2-6.6-0.3
				C57.9,7,57.9,13.4,57.9,13.4z"/>
			<path class="st1" d="M100.2,21.2c2.2,0,4.2,0,6.3,0c1.3,0,2.6,0,3.9,0c0.7,0,1,0.3,1,1c0,0.6,0,1.2,0,1.9s-0.3,1-0.9,1
				c-4.5,0-8.9,0-13.4,0c-0.6,0-0.9-0.4-0.9-1c0-6.6,0-13.2,0-19.8c0-0.7,0.3-1,1-1c0.7,0,1.3,0,1.9,0c1,0,1.2,0.2,1.2,1.2
				c0,5.2,0,10.5,0,15.7L100.2,21.2L100.2,21.2z"/>
			<path class="st1" d="M118.7,21.2c0.4,0,0.7,0,1,0c3,0,6,0,9,0c1,0,1.2,0.2,1.2,1.2c0,0.6,0,1.1,0,1.7c0,0.6-0.3,0.9-0.9,0.9
				c-4.5,0-8.9,0-13.4,0c-0.8,0-0.9-0.5-0.9-1.2c0-5.8,0-11.5,0-17.3c0-0.7,0-1.4,0-2.2c0-0.7,0.3-1.1,1.1-1.1c0.6,0,1.1,0,1.7,0
				c1.2,0,1.4,0.1,1.4,1.3c0,5.2,0,10.3,0,15.5V21.2z"/>
			<path class="st1" d="M187.8,21.2h1c3,0,5.9,0,8.9,0c1.1,0,1.3,0.2,1.3,1.3c0,0.5,0,1,0,1.5c0,0.6-0.3,1-1,1c-4.4,0-8.9,0-13.4,0
				c-0.7,0-1-0.3-1-1c0-6.6,0-13.1,0-19.7c0-0.7,0.4-1,1.1-1c0.6,0,1.3,0,1.9,0c0.9,0,1.1,0.2,1.1,1.1c0,4.5,0,8.9,0,13.4
				C187.8,18.9,187.8,20,187.8,21.2L187.8,21.2z"/>
		</g>
		<rect x="259.8" y="0.1" class="st2" width="0.9" height="28.1"/>
	</g>
</g>
</svg>
